<svg enable-background="new 0 0 24 24" viewBox="0 0 24 24" xmlns="http://www.w3.org/2000/svg"><path d="m22.004 1h-20.008c-1.102 0-1.996.894-1.996 1.996v4.004h.004v2 12.004c0 1.102.893 1.996 1.996 1.996h20c1.103 0 1.996-.894 1.996-1.996v-12.004-2h.004v-4.004c0-1.102-.894-1.996-1.996-1.996z" fill="#1eaae1"/><path d="m10 21v-4h-2.586c-.891 0-1.337-1.077-.707-1.707l5.293-5.293 5.293 5.293c.63.63.184 1.707-.707 1.707h-2.586v4 2h-4z" fill="#2980b9"/><path d="m22.004 1h-20.008c-1.102 0-1.996.894-1.996 1.996v4.004h24v-4.004c0-1.102-.894-1.996-1.996-1.996z"/><path d="m22.004 1h-20.008c-1.102 0-1.996.894-1.996 1.996v4.004h24v-4.004c0-1.102-.894-1.996-1.996-1.996z" fill="#323232"/></svg>