<svg enable-background="new 0 0 24 24" viewBox="0 0 24 24" xmlns="http://www.w3.org/2000/svg"><path d="m18 24c1.104 0 2-.896 2-2v-20h-16v20c0 1.104.896 2 2 2z" fill="#8cbe3c"/><path d="m7.5 13h.5v-1c0-.552.448-1 1-1s1 .448 1 1v2.5c0 .276.224.5.5.5s.5-.224.5-.5v-1c0-1.378 1.122-2.5 2.5-2.5 1.208 0 2.217.86 2.45 2h.55c.552 0 1 .448 1 1s-.448 1-1 1h-.5v.5c0 .552-.448 1-1 1s-1-.448-1-1v-2c0-.276-.224-.5-.5-.5s-.5.224-.5.5v1c0 1.378-1.122 2.5-2.5 2.5-1.207 0-2.217-.86-2.449-2h-.551c-.552 0-1-.448-1-1s.448-1 1-1z" fill="#467846"/><path d="m0 5c0 .552.448 1 1 1s1-.448 1-1v-3h20v3c0 .552.448 1 1 1s1-.448 1-1v-5h-24z" fill="#505050"/></svg>