<svg enable-background="new 0 0 24 24" viewBox="0 0 24 24" xmlns="http://www.w3.org/2000/svg"><circle cx="12" cy="12" fill="#8cbe3c" r="12"/><circle cx="12" cy="12" fill="#46a046" r="9"/><path d="m13 15.949v.551c0 .552-.448 1-1 1s-1-.448-1-1v-.5h-1c-.552 0-1-.448-1-1s.448-1 1-1h2.5c.276 0 .5-.224.5-.5s-.224-.5-.5-.5h-1c-1.378 0-2.5-1.122-2.5-2.5 0-1.208.86-2.217 2-2.45v-.55c0-.552.448-1 1-1s1 .448 1 1v.5h.5c.552 0 1 .448 1 1s-.448 1-1 1h-2c-.276 0-.5.224-.5.5s.224.5.5.5h1c1.378 0 2.5 1.122 2.5 2.5 0 1.207-.86 2.217-2 2.449z" fill="#8cbe3c"/></svg>