<svg enable-background="new 0 0 24 24" viewBox="0 0 24 24" xmlns="http://www.w3.org/2000/svg"><path d="m3 24 3-3 3 3 3-3 3 3 3-3 3 3v-24l-3 3-3-3-3 3-3-3-3 3-3-3z" fill="#dedede"/><path d="m11 7.017v-1.017c0-.552.448-1 1-1s1 .448 1 1v1h1c.552 0 1 .448 1 1s-.448 1-1 1h-2.818c-.652 0-1.182.449-1.182 1s.53 1 1.182 1h1.637c1.754 0 3.181 1.346 3.181 3 0 1.596-1.332 2.892-3 2.983v1.017c0 .552-.448 1-1 1s-1-.448-1-1v-1h-1.5c-.552 0-1-.448-1-1s.448-1 1-1h3.318c.652 0 1.182-.449 1.182-1s-.53-1-1.182-1h-1.637c-1.754 0-3.181-1.346-3.181-3 0-1.596 1.332-2.892 3-2.983z" fill="#8cbe3c"/></svg>