<svg enable-background="new 0 0 24 24" viewBox="0 0 24 24" xmlns="http://www.w3.org/2000/svg"><g style="fill:none;stroke:#000;stroke-width:2;stroke-linecap:round;stroke-linejoin:round;stroke-miterlimit:10"><path d="m14 11v.01"/><path d="m4 2v.01"/><path d="m23 8.99v.01"/><path d="m22 20.99v.01"/><path d="m10 1v1.879c0 1.358-.54 2.661-1.5 3.621"/><path d="m23 14h-1.879c-1.358 0-2.661.54-3.621 1.5"/><path d="m23 1c-1.287 1.165-2.559-.34-3.845.826-1.289 1.167-.016 2.672-1.305 3.84s-2.561-.338-3.85.829"/><path d="m1.107 20.334 3.778-11.334 10.115 10.115-11.334 3.778c-1.581.527-3.086-.978-2.559-2.559z"/></g></svg>