<svg enable-background="new 0 0 24 24" viewBox="0 0 24 24" xmlns="http://www.w3.org/2000/svg"><path d="m17.206 22.824-5.177-2.886c-.015-.008-.032-.008-.047 0l-5.175 2.891c-1.008.563-2.188-.345-1.996-1.538l.986-6.118c.003-.017-.003-.035-.015-.047l-4.411-4.56c-.726-.75-.326-2.058.676-2.213l6.093-.943c.016-.003.031-.014.038-.029l2.585-5.567c.504-1.085 1.961-1.086 2.466-.001l2.591 5.565c.007.016.022.027.038.029l6.094.937c1.003.154 1.404 1.462.678 2.213l-4.407 4.564c-.012.012-.017.03-.014.047l.991 6.117c.193 1.192-.985 2.101-1.994 1.539z" style="fill:none;stroke:#000;stroke-width:2;stroke-linecap:round;stroke-linejoin:round;stroke-miterlimit:10"/></svg>