<svg enable-background="new 0 0 24 24" viewBox="0 0 24 24" xmlns="http://www.w3.org/2000/svg"><g style="fill:none;stroke:#000;stroke-width:2;stroke-linecap:round;stroke-linejoin:round;stroke-miterlimit:10"><path d="m3 8v-5c0-1.105.895-2 2-2h10l6 6v1"/><path d="m11 18v-6h2c.552 0 1 .448 1 1v4c0 .552-.448 1-1 1z"/><path d="m5 18v-6h2c.552 0 1 .448 1 1v2c0 .552-.448 1-1 1h-2"/><path d="m17 18v-6h3"/><path d="m17 15h2"/><path d="m20.732 22c-.346.598-.992 1-1.732 1h-14c-.74 0-1.386-.402-1.732-1"/></g></svg>