<svg enable-background="new 0 0 24 24" viewBox="0 0 24 24" xmlns="http://www.w3.org/2000/svg"><g style="fill:none;stroke:#000;stroke-width:2;stroke-linecap:round;stroke-linejoin:round;stroke-miterlimit:10"><path d="m19.845 13.561c.1-.505.155-1.027.155-1.561s-.055-1.056-.155-1.561l1.806-1.489c.502-.414.632-1.132.307-1.696l-.869-1.508c-.325-.564-1.011-.811-1.62-.582l-2.198.825c-.779-.684-1.689-1.218-2.691-1.559l-.385-2.316c-.108-.643-.663-1.114-1.314-1.114h-1.738c-.651 0-1.206.471-1.313 1.114l-.386 2.316c-1.002.341-1.912.875-2.691 1.559l-2.198-.825c-.61-.228-1.295.018-1.62.582l-.87 1.508c-.325.564-.195 1.282.307 1.696l1.806 1.489c-.1.505-.155 1.026-.155 1.561s.055 1.056.155 1.561l-1.806 1.489c-.502.414-.632 1.132-.307 1.696l.869 1.508c.325.564 1.011.811 1.62.582l2.198-.825c.779.684 1.689 1.218 2.691 1.559l.385 2.316c.109.643.664 1.114 1.315 1.114h1.738c.651 0 1.206-.471 1.313-1.114l.385-2.316c1.002-.341 1.913-.875 2.691-1.559l2.198.825c.609.229 1.295-.017 1.62-.582l.869-1.508c.325-.564.196-1.282-.307-1.696z"/><circle cx="12.012" cy="12" r="3"/></g></svg>