<svg enable-background="new 0 0 24 24" viewBox="0 0 24 24" xmlns="http://www.w3.org/2000/svg"><path d="m22 16.555v-7.554c0-3.308-2.691-5.999-6-5.999v-1.826c0-1.09-1.356-1.592-2.066-.764l-3.934 4.59 3.934 4.589c.71.828 2.066.326 2.066-.764v-1.825c1.103 0 2 .897 2 2v7.553c-1.191.693-2 1.968-2 3.445 0 2.209 1.791 4 4 4s4-1.791 4-4c0-1.477-.809-2.752-2-3.445zm-2 4.945c-.828 0-1.5-.672-1.5-1.5s.672-1.5 1.5-1.5 1.5.672 1.5 1.5-.672 1.5-1.5 1.5zm-12-6.327v1.826c-1.103 0-2-.897-2-2v-7.554c1.191-.693 2-1.968 2-3.445 0-2.209-1.791-4-4-4s-4 1.791-4 4c0 1.477.809 2.752 2 3.445v7.553c0 3.308 2.691 5.999 6 5.999v1.826c0 1.09 1.356 1.592 2.066.764l3.934-4.589-3.934-4.589c-.71-.828-2.066-.326-2.066.764zm-4-9.673c-.828 0-1.5-.672-1.5-1.5s.672-1.5 1.5-1.5 1.5.672 1.5 1.5-.672 1.5-1.5 1.5z"/></svg>