<svg enable-background="new 0 0 24 24" viewBox="0 0 24 24" xmlns="http://www.w3.org/2000/svg"><path d="m15 9h-2v-2c0-.552-.448-1-1-1s-1 .448-1 1v2h-2c-.256 0-.512.098-.707.293-.391.391-.391 1.023 0 1.414l3.707 3.707 3.707-3.707c.391-.391.391-1.023 0-1.414-.195-.195-.451-.293-.707-.293zm7.082-6.309c-.152-.973-.99-1.691-1.976-1.691h-16.212c-.986 0-1.824.718-1.976 1.691l-1.918 12.309v6.001c0 1.104.895 1.999 1.999 1.999h20.001c1.105 0 2-.895 2-1.999v-6.001zm-7.082 12.309c0 1.657-1.343 3-3 3s-3-1.343-3-3h-5.964l1.714-11h14.5l1.714 11z"/></svg>