<svg enable-background="new 0 0 24 24" viewBox="0 0 24 24" xmlns="http://www.w3.org/2000/svg"><path d="m7 12c0-1.019.308-1.964.832-2.754l-4.99-4.99c-1.77 2.09-2.842 4.79-2.842 7.744s1.072 5.654 2.841 7.745l4.99-4.99c-.523-.791-.831-1.736-.831-2.755zm5-5c1.019 0 1.964.308 2.754.832l4.99-4.99c-2.09-1.77-4.79-2.842-7.744-2.842s-5.654 1.072-7.745 2.841l4.99 4.99c.791-.523 1.736-.831 2.755-.831zm9.159-2.745-4.99 4.99c.523.791.831 1.736.831 2.755s-.308 1.964-.832 2.754l4.99 4.99c1.77-2.09 2.842-4.79 2.842-7.744s-1.072-5.654-2.841-7.745zm-9.159 12.745c-1.019 0-1.964-.308-2.754-.832l-4.99 4.99c2.09 1.77 4.79 2.842 7.744 2.842s5.654-1.072 7.745-2.841l-4.99-4.99c-.791.523-1.736.831-2.755.831z"/></svg>