<svg enable-background="new 0 0 24 24" viewBox="0 0 24 24" xmlns="http://www.w3.org/2000/svg"><path d="m22.286 14.458-1.556-1.308c.047-.377.08-.759.08-1.149 0-.39-.033-.772-.08-1.149l1.556-1.308c.739-.621.93-1.698.451-2.544l-1.129-1.997c-.479-.847-1.486-1.216-2.382-.873l-1.893.725c-.595-.464-1.244-.859-1.943-1.158l-.33-2.024c-.158-.966-.975-1.673-1.932-1.673h-2.257c-.957 0-1.773.707-1.931 1.671l-.33 2.024c-.7.299-1.349.694-1.943 1.158l-1.894-.724c-.896-.343-1.904.026-2.382.873l-1.129 1.997c-.478.846-.287 1.922.452 2.543l1.556 1.308c-.048.378-.08.76-.08 1.15 0 .39.033.772.08 1.149l-1.556 1.308c-.739.621-.93 1.698-.451 2.544l1.129 1.997c.479.847 1.486 1.216 2.382.873l1.893-.725c.595.464 1.244.859 1.943 1.158l.33 2.024c.158.965.975 1.672 1.932 1.672h2.257c.957 0 1.774-.707 1.931-1.671l.33-2.024c.7-.299 1.349-.694 1.943-1.158l1.893.725c.896.343 1.904-.026 2.383-.873l1.128-1.997c.479-.847.288-1.923-.451-2.544zm-10.286 1.542c-2.209 0-4-1.791-4-4s1.791-4 4-4 4 1.791 4 4-1.791 4-4 4z"/></svg>