<svg enable-background="new 0 0 24 24" viewBox="0 0 24 24" xmlns="http://www.w3.org/2000/svg"><path d="m3.999 11.931c-.073-2.163 1.933-3.931 4.097-3.931h5.904v3.28c0 .641.774.961 1.227.508l5.773-5.788-5.749-5.784c-.461-.462-1.251-.135-1.251.519v3.265h-6c-4.378 0-7.947 3.536-8 7.902-.011.923.724 1.904 1.633 2.066 1.289.229 2.408-.78 2.366-2.037zm16.002.138c.072 2.163-1.933 3.931-4.098 3.931h-5.903v-3.28c0-.641-.774-.961-1.227-.508l-5.773 5.788 5.749 5.784c.461.462 1.251.135 1.251-.519v-3.265h6c4.378 0 7.947-3.536 8-7.902.011-.923-.724-1.904-1.633-2.066-1.29-.229-2.408.78-2.366 2.037z"/></svg>