<svg enable-background="new 0 0 24 24" viewBox="0 0 24 24" xmlns="http://www.w3.org/2000/svg"><path d="m4 2c-1.104 0-2 .896-2 2v18c0 1.104.896 2 2 2h15.999c1.104 0 2-.896 2-2v-12h.001v-6c0-1.105-.896-2-2-2z" fill="#bee6fa"/><path d="m12.5 12h-1c-1.378 0-2.5-1.122-2.5-2.5 0-1.207.86-2.217 2-2.449v-.551c0-.552.448-1 1-1s1 .448 1 1v.5h.5c.552 0 1 .448 1 1s-.448 1-1 1h-2c-.276 0-.5.224-.5.5s.224.5.5.5h1c1.378 0 2.5 1.122 2.5 2.5 0 1.207-.86 2.217-2 2.449v.551c0 .552-.448 1-1 1s-1-.448-1-1v-.5h-1c-.552 0-1-.448-1-1s.448-1 1-1h2.5c.276 0 .5-.224.5-.5s-.224-.5-.5-.5z" fill="#46a046"/><g fill="#505050"><path d="m16.545 21h-9.091c-.5 0-.909-.45-.909-1s.409-1 .909-1h9.091c.5 0 .909.45.909 1s-.409 1-.909 1z"/><path d="m7 4c-.552 0-1-.448-1-1v-2c0-.552.448-1 1-1 .552 0 1 .448 1 1v2c0 .552-.448 1-1 1z"/><path d="m12 4c-.552 0-1-.448-1-1v-2c0-.552.448-1 1-1 .552 0 1 .448 1 1v2c0 .552-.448 1-1 1z"/><path d="m17 4c-.552 0-1-.448-1-1v-2c0-.552.448-1 1-1 .552 0 1 .448 1 1v2c0 .552-.448 1-1 1z"/></g></svg>