<svg enable-background="new 0 0 24 24" viewBox="0 0 24 24" xmlns="http://www.w3.org/2000/svg"><circle cx="12" cy="18" fill="#1eaae1" r="1"/><path d="m11.294 12.708c.389.389 1.025.389 1.414 0s.389-1.025 0-1.414l-3.535-3.535c-.389-.389-1.025-.389-1.414 0s-.389 1.025 0 1.414z" fill="#505050"/><circle cx="18" cy="12" fill="#1eaae1" r="1"/><circle cx="6" cy="12" fill="#1eaae1" r="1"/><path d="m12 0h-2v5c0 .552.448 1 1 1s1-.448 1-1v-2c4.962 0 9 4.038 9 9s-4.038 9-9 9-9-4.038-9-9c0-1.498.375-2.979 1.083-4.285.395-.728.125-1.638-.603-2.033-.727-.395-1.638-.126-2.034.603-.946 1.743-1.446 3.719-1.446 5.715 0 6.617 5.383 12 12 12s12-5.383 12-12-5.383-12-12-12z" fill="#2980b9"/></svg>