<svg enable-background="new 0 0 24 24" viewBox="0 0 24 24" xmlns="http://www.w3.org/2000/svg"><path d="m6.625 1.781c.432-.345.501-.974.156-1.405-.344-.432-.974-.501-1.406-.157l-5 4c-.432.345-.501.974-.156 1.405.198.248.488.376.781.376.22 0 .44-.072.625-.219zm17 2.438-5-4c-.431-.345-1.061-.276-1.405.156-.345.431-.275 1.061.156 1.405l5 4c.184.148.404.22.624.22.293 0 .584-.128.781-.375.345-.432.275-1.061-.156-1.406zm-11.625-1.219c-5.799 0-10.5 4.701-10.5 10.5s4.701 10.5 10.5 10.5 10.5-4.701 10.5-10.5-4.701-10.5-10.5-10.5zm3 15h-6.724l4-7h-3.276c-.553 0-1-.448-1-1s.447-1 1-1h6.724l-4 7h3.276c.553 0 1 .448 1 1s-.447 1-1 1z"/></svg>