<svg enable-background="new 0 0 24 24" viewBox="0 0 24 24" xmlns="http://www.w3.org/2000/svg"><path d="m12 0c-6.627 0-12 5.373-12 12s5.373 12 12 12 12-5.373 12-12-5.373-12-12-12zm-.04 2h.02.02.02c.54.01.98.45.98 1s-.45 1-1 1c-.01 0-.01 0-.02 0h-.01c-.56 0-1.01-.44-1.01-1 0-.55.45-1 1-1zm-8.5 13c-.08.02-.16.03-.23.03-.46 0-.87-.31-.97-.78-.13-.53.21-1.07.75-1.2.53-.12 1.07.22 1.19.75.13.54-.21 1.08-.74 1.2zm2.27-7.96c-.2.24-.49.37-.79.37-.21 0-.43-.07-.62-.21-.43-.35-.5-.98-.16-1.41s.97-.5 1.4-.16c.44.34.51.97.17 1.41zm6.27 10.96c-1.381 0-2.5-1.119-2.5-2.5 0-1.025.618-1.903 1.5-2.289v-4.211c0-.552.448-1 1-1s1 .448 1 1v4.211c.882.386 1.5 1.264 1.5 2.289 0 1.381-1.119 2.5-2.5 2.5zm7.03-10.62c-.29 0-.58-.12-.78-.37-.34-.43-.27-1.06.16-1.41.43-.34 1.06-.27 1.4.16.35.43.28 1.06-.15 1.41-.19.14-.41.21-.63.21zm1.75 7.61c-.07 0-.15-.01-.22-.02-.54-.12-.88-.66-.76-1.2s.66-.88 1.2-.75c.54.12.88.65.75 1.19-.1.47-.52.78-.97.78z"/></svg>