<svg enable-background="new 0 0 24 24" viewBox="0 0 24 24" xmlns="http://www.w3.org/2000/svg"><path d="m7.667 12.09-1.667 5.91 5.91-1.667 8.333-8.333-4.243-4.243zm15.454-11.211c-.566-.567-1.319-.879-2.121-.879-.801 0-1.555.312-2.121.879l-1.464 1.464 4.243 4.243 1.464-1.464c.566-.567.878-1.32.878-2.122s-.312-1.555-.879-2.121zm-5.121 14.121c-.553 0-1 .448-1 1v5c0 .551-.448 1-1 1h-13c-.552 0-1-.449-1-1v-13c0-.551.448-1 1-1h5c.553 0 1-.448 1-1s-.447-1-1-1h-5c-1.654 0-3 1.346-3 3v13c0 1.654 1.346 3 3 3h13c1.654 0 3-1.346 3-3v-5c0-.552-.447-1-1-1z"/></svg>