<svg enable-background="new 0 0 24 24" viewBox="0 0 24 24" xmlns="http://www.w3.org/2000/svg"><path d="m20.489 3.511c-4.682-4.682-12.297-4.682-16.979 0-4.681 4.681-4.681 12.298 0 16.978 2.342 2.342 5.415 3.511 8.49 3.511s6.148-1.169 8.489-3.51c4.681-4.681 4.681-12.298 0-16.979zm-7.489 14.495c0 .552-.448 1-1 1s-1-.448-1-1c0-.002.001-.004.001-.006s-.001-.003-.001-.005c0-.552.448-1 1-1s1 .448 1 1c0 .002-.001.004-.001.006s.001.003.001.005zm4-8.011c0 .938-.448 1.835-1.199 2.399l-3.201 2.4c-.18.135-.39.2-.599.2-.305 0-.604-.138-.801-.4-.332-.442-.242-1.069.2-1.4l3.2-2.4c.25-.188.399-.487.399-.8v-1c0-.551-.448-1-1-1h-3c-.552 0-1 .449-1 1 0 .552-.447 1-1 1s-1-.448-1-1c0-1.654 1.346-3 3-3h3c1.654 0 3 1.346 3 3v1.001z"/></svg>