<svg enable-background="new 0 0 24 24" viewBox="0 0 24 24" xmlns="http://www.w3.org/2000/svg"><path d="m4 3c.552 0 1-.448 1-1s-.448-1-1-1-1 .448-1 1 .448 1 1 1zm-3.874 18.106c-.602 1.718 1.05 3.369 2.767 2.767l13.107-4.596-11.277-11.277zm8.374-13.606c.256 0 .512-.098.707-.293 1.156-1.157 1.793-2.694 1.793-4.328v-1.879c0-.552-.447-1-1-1s-1 .448-1 1v1.879c0 1.084-.44 2.146-1.207 2.914-.391.391-.391 1.024 0 1.415.195.194.451.292.707.292zm5.5 4.5c.552 0 1-.448 1-1s-.448-1-1-1-1 .448-1 1 .448 1 1 1zm9-4c-.552 0-1 .448-1 1s.448 1 1 1 1-.448 1-1-.448-1-1-1zm-3.962-1.624c.917-.917.816-1.976.748-2.676-.062-.657-.049-.851.172-1.072.222-.221.417-.234 1.072-.172.701.068 1.761.168 2.677-.749.391-.391.391-1.024 0-1.414-.391-.391-1.023-.391-1.414 0-.22.221-.412.234-1.072.172-.702-.068-1.759-.168-2.677.749-.917.917-.815 1.976-.748 2.677.062.657.049.851-.172 1.072-.219.22-.415.234-1.069.17-.699-.067-1.758-.17-2.676.747-.391.391-.391 1.024 0 1.414.195.195.451.293.707.293s.512-.098.707-.293c.22-.22.415-.233 1.069-.17.703.067 1.76.168 2.676-.748zm3.962 6.624h-1.879c-1.636 0-3.173.637-4.328 1.793-.391.391-.391 1.024 0 1.415.195.195.451.292.707.292s.512-.098.707-.293c.778-.778 1.813-1.207 2.914-1.207h1.879c.553 0 1-.448 1-1s-.447-1-1-1zm-1 7c-.552 0-1 .448-1 1s.448 1 1 1 1-.448 1-1-.448-1-1-1z"/></svg>