<svg enable-background="new 0 0 24 24" viewBox="0 0 24 24" xmlns="http://www.w3.org/2000/svg"><path d="m14.515 2c-.891 0-1.337 1.077-.707 1.707l1.828 1.829-5.657 5.657c-.781.781-.781 2.047 0 2.828s2.047.781 2.828 0l5.657-5.657 1.829 1.828c.63.63 1.707.184 1.707-.707v-7.485zm5.985 13c-.827 0-1.5.673-1.5 1.5v2.2c0 .165-.135.3-.3.3h-13.4c-.165 0-.3-.135-.3-.3v-13.4c0-.165.135-.3.3-.3h2.2c.827 0 1.5-.673 1.5-1.5s-.673-1.5-1.5-1.5h-2.2c-1.82 0-3.3 1.48-3.3 3.3v13.4c0 1.82 1.48 3.3 3.3 3.3h13.4c1.819 0 3.3-1.48 3.3-3.3v-2.2c0-.827-.673-1.5-1.5-1.5z"/></svg>