<svg enable-background="new 0 0 24 24" viewBox="0 0 24 24" xmlns="http://www.w3.org/2000/svg"><path d="m7.5 12c3.032 0 5.5-2.467 5.5-5.5s-2.468-5.5-5.5-5.5-5.5 2.467-5.5 5.5 2.468 5.5 5.5 5.5zm9.5 0c2.757 0 5-2.243 5-5s-2.243-5-5-5c-1.083 0-2.08.355-2.899.942.573 1.06.899 2.271.899 3.558 0 1.565-.483 3.019-1.306 4.222.884.786 2.034 1.278 3.306 1.278zm-.5 2c-.496 0-.981.037-1.45.103 1.829 1.329 2.95 3.185 2.95 5.272v3.625h6v-3.625c0-2.964-3.364-5.375-7.5-5.375zm-8.5 0c-4.411 0-8 2.411-8 5.375v3.625h16v-3.625c0-2.964-3.588-5.375-8-5.375z"/></svg>