<svg enable-background="new 0 0 24 24" viewBox="0 0 24 24" xmlns="http://www.w3.org/2000/svg"><path d="m8 13c3.032 0 5.5-2.467 5.5-5.5s-2.468-5.5-5.5-5.5-5.5 2.467-5.5 5.5 2.468 5.5 5.5 5.5zm13.1 1.02c-1.303-.142-2.468.493-3.1 1.497-.632-1.004-1.796-1.639-3.1-1.497-1.772.193-3.161 1.877-2.859 3.634.483 2.817 2.973 4.808 5.959 6.301 2.986-1.493 5.476-3.484 5.959-6.301.301-1.757-1.087-3.442-2.859-3.634zm-11.03 3.972c-.161-.936-.029-1.874.337-2.742-.76-.162-1.568-.25-2.407-.25-4.411 0-8 2.411-8 5.375v3.625h14.202c-2.372-1.726-3.737-3.708-4.132-6.008z"/></svg>