<!-- Symbolicons Line Icons -->
<svg xmlns="http://www.w3.org/2000/svg">
<!-- Partner Portal Navigation icons -->
<symbol id="bell" viewBox="0 0 24 24" stroke="none"><path d="M19 12V7c0-3.86-3.14-7-7-7S5 3.14 5 7v5l-5 7h24zm-7 12c1.858 0 3.411-1.28 3.858-3H8.142c.447 1.72 2 3 3.858 3z"/></symbol>
<symbol id="dashboard" viewBox="0 0 24 24" stroke="none"><path d="M12 0C5.373 0 0 5.373 0 12s5.373 12 12 12 12-5.373 12-12S18.627 0 12 0zm-.04 2h.06A.999.999 0 0 1 12 4h-.03a.999.999 0 0 1-1.01-1c0-.55.45-1 1-1zm-8.5 13a.983.983 0 0 1-1.2-.75c-.13-.53.21-1.07.75-1.2.53-.12 1.07.22 1.19.75a.994.994 0 0 1-.74 1.2zm2.27-7.96a1.025 1.025 0 0 1-1.41.16c-.43-.35-.5-.98-.16-1.41s.97-.5 1.4-.16c.44.34.51.97.17 1.41zM12 18a2.5 2.5 0 0 1-1-4.789V9a1 1 0 0 1 2 0v4.211A2.498 2.498 0 0 1 12 18zm7.03-10.62c-.29 0-.58-.12-.78-.37-.34-.43-.27-1.06.16-1.41a1 1 0 0 1 1.4.16c.35.43.28 1.06-.15 1.41-.19.14-.41.21-.63.21zm1.75 7.61c-.07 0-.15-.01-.22-.02-.54-.12-.88-.66-.76-1.2s.66-.88 1.2-.75c.54.12.88.65.75 1.19-.1.47-.52.78-.97.78z"/></symbol>
<symbol id="file-download" viewBox="0 0 24 24" stroke="none"><path d="M16 0v6h6zm-2 0H4a2 2 0 0 0-2 2v20a2 2 0 0 0 2 2h6l-3.293-3.293c-.63-.63-.184-1.707.707-1.707H10v-4a2 2 0 0 1 4 0v4h2.586c.891 0 1.337 1.077.707 1.707L14 24h6a2 2 0 0 0 2-2V8h-8z"/></symbol>
<symbol id="office" viewBox="0 0 24 24" stroke="none"><path d="M0 24h8V9H0zm3-12h2v2H3zm0 4h2v2H3zm7-16v24h14V0zm6 17h-3v-3h3zm0-5h-3V9h3zm0-5h-3V4h3zm5 10h-3v-3h3zm0-5h-3V9h3zm0-5h-3V4h3z"/></symbol>
<symbol id="users" viewBox="0 0 24 24" stroke="none"><path d="M7.5 12c3.032 0 5.5-2.467 5.5-5.5S10.532 1 7.5 1 2 3.467 2 6.5 4.468 12 7.5 12zm9.5 0c2.757 0 5-2.243 5-5s-2.243-5-5-5a4.96 4.96 0 0 0-2.899.942A7.458 7.458 0 0 1 15 6.5a7.454 7.454 0 0 1-1.306 4.222A4.96 4.96 0 0 0 17 12zm-.5 2c-.496 0-.981.037-1.45.103 1.829 1.329 2.95 3.185 2.95 5.272V23h6v-3.625C24 16.411 20.636 14 16.5 14zM8 14c-4.411 0-8 2.411-8 5.375V23h16v-3.625C16 16.411 12.412 14 8 14z"/></symbol>
<symbol id="life-ring" viewBox="0 0 24 24" stroke="none"><path d="M7 12c0-1.019.308-1.964.832-2.754l-4.99-4.99C1.072 6.346 0 9.046 0 12s1.072 5.654 2.841 7.745l4.99-4.99A4.977 4.977 0 0 1 7 12zm5-5c1.019 0 1.964.308 2.754.832l4.99-4.99C17.654 1.072 14.954 0 12 0S6.346 1.072 4.255 2.841l4.99 4.99A4.977 4.977 0 0 1 12 7zm9.159-2.745l-4.99 4.99a4.977 4.977 0 0 1-.001 5.509l4.99 4.99C22.928 17.654 24 14.954 24 12s-1.072-5.654-2.841-7.745zM12 17a4.964 4.964 0 0 1-2.754-.832l-4.99 4.99C6.346 22.928 9.046 24 12 24s5.654-1.072 7.745-2.841l-4.99-4.99A4.977 4.977 0 0 1 12 17z"/></symbol>
<symbol id="information" viewBox="0 0 24 24" stroke="none"><path d="M20.489 3.511c-4.682-4.682-12.297-4.682-16.979 0-4.681 4.681-4.681 12.298 0 16.978C5.852 22.831 8.925 24 12 24s6.148-1.169 8.489-3.51c4.681-4.681 4.681-12.298 0-16.979zM13 18.006a1 1 0 0 1-2 0l.001-.006-.001-.005a1 1 0 0 1 2 0l-.001.006.001.005zm4-8.011c0 .938-.448 1.835-1.199 2.399l-3.201 2.4a.998.998 0 0 1-1.4-.2 1 1 0 0 1 .2-1.4l3.2-2.4c.25-.188.399-.487.399-.8v-1c0-.551-.448-1-1-1h-3c-.552 0-1 .449-1 1a1 1 0 1 1-2 0c0-1.654 1.346-3 3-3h3c1.654 0 3 1.346 3 3v1.001z"/></symbol>
<symbol id="settings" viewBox="0 0 24 24" stroke="none"><path d="M22.286 14.458L20.73 13.15c.047-.377.08-.759.08-1.149s-.033-.772-.08-1.149l1.556-1.308c.739-.621.93-1.698.451-2.544l-1.129-1.997a1.938 1.938 0 0 0-2.382-.873l-1.893.725a8.783 8.783 0 0 0-1.943-1.158l-.33-2.024C14.902.707 14.085 0 13.128 0h-2.257C9.914 0 9.098.707 8.94 1.671l-.33 2.024c-.7.299-1.349.694-1.943 1.158l-1.894-.724a1.938 1.938 0 0 0-2.382.873L1.262 6.999a2.029 2.029 0 0 0 .452 2.543L3.27 10.85c-.048.378-.08.76-.08 1.15 0 .39.033.772.08 1.149l-1.556 1.308a2.029 2.029 0 0 0-.451 2.544l1.129 1.997a1.938 1.938 0 0 0 2.382.873l1.893-.725a8.783 8.783 0 0 0 1.943 1.158l.33 2.024c.158.965.975 1.672 1.932 1.672h2.257c.957 0 1.774-.707 1.931-1.671l.33-2.024a8.738 8.738 0 0 0 1.943-1.158l1.893.725a1.94 1.94 0 0 0 2.383-.873l1.128-1.997a2.029 2.029 0 0 0-.451-2.544zM12 16a4 4 0 1 1 0-8 4 4 0 0 1 0 8z"/></symbol>
<symbol id="send-out" viewBox="0 0 24 24" stroke="none"><path d="M18.707 6.707c-.63-.63-1.707-.184-1.707.707V10h-7a2 2 0 0 0 0 4h7v2.586c0 .891 1.077 1.337 1.707.707L24 12zM4 18V6c0-1.103.897-2 2-2h6V0H6C2.691 0 0 2.691 0 6v12c0 3.309 2.691 6 6 6h6v-4H6c-1.103 0-2-.897-2-2z"/></symbol>
<symbol id="info" viewBox="0 0 24 24" stroke="none"><path d="M12 0C5.373 0 0 5.37 0 12c0 6.627 5.373 12 12 12s12-5.373 12-12c0-6.63-5.373-12-12-12zm1 18a1 1 0 0 1-2 0v-7a1 1 0 0 1 2 0zM12 8a1.5 1.5 0 1 1 .001-3.001A1.5 1.5 0 0 1 12 8z"/></symbol>
<symbol id="chat-bubbles-alt" viewBox="0 0 24 24" stroke="none"><path d="M11 13h5a2 2 0 0 0 2-2V2a2 2 0 0 0-2-2H2a2 2 0 0 0-2 2v9a2 2 0 0 0 2 2h3v4zm11-6h-2v4c0 2.206-1.794 4-4 4h-4.395L6.12 18.657A1.993 1.993 0 0 0 8 20h5l6 4v-4h3a2 2 0 0 0 2-2V9a2 2 0 0 0-2-2z"/></symbol>
<symbol id="flag-wave" viewBox="0 0 24 24" stroke="none"><path d="M16 5V2H6v14h7v3h10V5zM2.5 0C1.675 0 1 .675 1 1.5v21c0 .825.675 1.5 1.5 1.5S4 23.325 4 22.5v-21C4 .675 3.325 0 2.5 0z"/></symbol>
<symbol id="party-horn" viewBox="0 0 24 24" stroke="none"><path d="M4 3a1 1 0 1 0 0-2 1 1 0 0 0 0 2zM.126 21.106c-.602 1.718 1.05 3.369 2.767 2.767L16 19.277 4.723 8zM8.5 7.5a.997.997 0 0 0 .707-.293A6.084 6.084 0 0 0 11 2.879V1a1 1 0 1 0-2 0v1.879c0 1.084-.44 2.146-1.207 2.914A1 1 0 0 0 8.5 7.5zM14 12a1 1 0 1 0 0-2 1 1 0 0 0 0 2zm9-4a1 1 0 1 0 0 2 1 1 0 0 0 0-2zm-3.962-1.624c.917-.917.816-1.976.748-2.676-.062-.657-.049-.851.172-1.072.222-.221.417-.234 1.072-.172.701.068 1.761.168 2.677-.749A.999.999 0 1 0 22.293.293c-.22.221-.412.234-1.072.172-.702-.068-1.759-.168-2.677.749-.917.917-.815 1.976-.748 2.677.062.657.049.851-.172 1.072-.219.22-.415.234-1.069.17-.699-.067-1.758-.17-2.676.747a.999.999 0 1 0 1.414 1.414c.22-.22.415-.233 1.069-.17.703.067 1.76.168 2.676-.748zM23 13h-1.879a6.077 6.077 0 0 0-4.328 1.793 1 1 0 1 0 1.414 1.414A4.094 4.094 0 0 1 21.121 15H23a1 1 0 1 0 0-2zm-1 7a1 1 0 1 0 0 2 1 1 0 0 0 0-2z"/></symbol>
<symbol id="menu" viewBox="0 0 24 24" stroke="none"><path d="M4 7h16c1.1 0 2-.9 2-2s-.9-2-2-2H4c-1.1 0-2 .9-2 2s.9 2 2 2zm16 10H4c-1.1 0-2 .9-2 2s.9 2 2 2h16c1.1 0 2-.9 2-2s-.9-2-2-2zm0-7H4c-1.1 0-2 .9-2 2s.9 2 2 2h16c1.1 0 2-.9 2-2s-.9-2-2-2z"/></symbol>
<symbol id="user-circle" viewBox="0 0 24 24" stroke="none"><path d="M12 0C5.373 0 0 5.373 0 12s5.373 12 12 12 12-5.373 12-12S18.627 0 12 0zm0 5c2.481 0 4.5 2.019 4.5 4.5S14.481 14 12 14s-4.5-2.019-4.5-4.5S9.519 5 12 5zm0 17c-2.58 0-4.927-.99-6.703-2.601C6.143 17.441 8.816 16 12 16s5.857 1.441 6.703 3.399A9.945 9.945 0 0 1 12 22z"/></symbol>
<symbol id="rotate" viewBox="0 0 24 24" stroke="none"><path d="M1.309 1.789l2.105 2.105C1.259 6.109 0 9.094 0 12.225c0 4.918 2.991 9.143 7.248 10.97 1.3.558 2.752-.388 2.752-1.803v-.072c0-.807-.507-1.501-1.246-1.827C5.958 18.261 4 15.471 4 12.225c0-2.066.825-4.037 2.238-5.507l1.973 1.973c.66.66 1.789.193 1.789-.741V0H2.05c-.934 0-1.401 1.129-.741 1.789zm19.276 18.316C22.74 17.891 24 14.905 24 11.774c0-4.918-2.991-9.143-7.248-10.97C15.452.247 14 1.193 14 2.608v.072c0 .807.507 1.501 1.246 1.827C18.042 5.739 20 8.529 20 11.775a7.97 7.97 0 0 1-2.238 5.507l-1.973-1.973c-.66-.66-1.789-.193-1.789.741V24h7.95c.934 0 1.401-1.129.741-1.789z"/></symbol>

<symbol id="add" viewBox="0 0 24 24" stroke="none"><path d="M20 10h-6V4a2 2 0 00-4 0v6H4a2 2 0 000 4h6v6a2 2 0 004 0v-6h6a2 2 0 000-4z"/></symbol>
<symbol id="alert" viewBox="0 0 24 24" stroke="none"><path d="M12 0C5.373 0 0 5.373 0 12c0 6.63 5.373 12 12 12s12-5.37 12-12c0-6.627-5.373-12-12-12zm-1 6a1 1 0 0 1 2 0v7a1 1 0 0 1-2 0zm1 13a1.5 1.5 0 1 1 .001-3.001A1.5 1.5 0 0 1 12 19z"/></symbol>
<symbol id="alarm-snooze" viewBox="0 0 24 24" stroke="none"><path d="M6.625 1.781A1 1 0 0 0 5.375.219l-5 4A.999.999 0 0 0 1 6a1 1 0 0 0 .625-.219zm17 2.438l-5-4a.999.999 0 1 0-1.249 1.561l5 4a.996.996 0 0 0 1.405-.155 1 1 0 0 0-.156-1.406zM12 3C6.201 3 1.5 7.701 1.5 13.5S6.201 24 12 24s10.5-4.701 10.5-10.5S17.799 3 12 3zm3 15H8.276l4-7H9a1 1 0 1 1 0-2h6.724l-4 7H15a1 1 0 1 1 0 2z"/></symbol>
<symbol id="bookmark" viewBox="0 0 24 24" stroke="none"><path d="M18.999 1H5.001A2.001 2.001 0 0 0 3 3.001V23l9-6 9 6V3.001A2.001 2.001 0 0 0 18.999 1z"/></symbol>
<symbol id="calendar" viewBox="0 0 24 24" stroke="none"><path d="M0 22a2 2 0 0 0 2 2h20a2 2 0 0 0 2-2V11H0zM22 2h-3V1a1 1 0 0 0-2 0v1H7V1a1 1 0 0 0-2 0v1H2a2 2 0 0 0-2 2v5h24V4a2 2 0 0 0-2-2zM6 7a1 1 0 1 1 0-2 1 1 0 0 1 0 2zm12 0a1 1 0 1 1 0-2 1 1 0 0 1 0 2z"/></symbol>
<symbol id="calendar-date" viewBox="0 0 24 24" stroke="none"><path d="M22 2h-3V1a1 1 0 0 0-2 0v1H7V1a1 1 0 0 0-2 0v1H2a2 2 0 0 0-2 2v5h24V4a2 2 0 0 0-2-2zM6 7a1 1 0 1 1 0-2 1 1 0 0 1 0 2zm12 0a1 1 0 1 1 0-2 1 1 0 0 1 0 2zM0 22a2 2 0 0 0 2 2h20a2 2 0 0 0 2-2V11H0zm14-8h7v7h-7z"/></symbol>
<symbol id="cancel" viewBox="0 0 24 24" stroke="none"><path d="M14.828 12l4.586-4.586a2 2 0 1 0-2.828-2.828L12 9.172 7.414 4.586a2 2 0 1 0-2.828 2.828L9.172 12l-4.586 4.586a2 2 0 1 0 2.828 2.828L12 14.828l4.586 4.586c.39.391.902.586 1.414.586s1.024-.195 1.414-.586a2 2 0 0 0 0-2.828z"/></symbol>
<symbol id="caret-down" viewBox="0 0 24 24" stroke="none"><path d="M4.585 10.468L12 18l7.415-7.532c.779-.792.779-2.081 0-2.873s-2.049-.792-2.829 0L12 12.254 7.413 7.595C7.035 7.211 6.533 7 5.999 7s-1.036.211-1.414.595a2.056 2.056 0 0 0 0 2.873z"/></symbol>
<symbol id="caret-right" viewBox="0 0 24 24" stroke="none"><path d="M10.468 19.415L18 12l-7.532-7.415c-.792-.779-2.081-.779-2.873 0s-.792 2.049 0 2.829L12.254 12l-4.659 4.587c-.384.378-.595.88-.595 1.414s.211 1.036.595 1.414c.792.78 2.082.78 2.873 0z"/></symbol>
<symbol id="chat-conversation-alt" viewBox="0 0 24 24" stroke="none"><path d="M22 0H2a2 2 0 0 0-2 2v15a2 2 0 0 0 2 2h6l4 5 4-5h6a2 2 0 0 0 2-2V2a2 2 0 0 0-2-2zm-9 13H7c-.55 0-1-.45-1-1s.45-1 1-1h6c.55 0 1 .45 1 1s-.45 1-1 1zm4-5H7c-.55 0-1-.45-1-1s.45-1 1-1h10c.55 0 1 .45 1 1s-.45 1-1 1z"/></symbol>
<symbol id="check" viewBox="0 0 24 24" stroke="none"><path d="M21.28 4.473a1.973 1.973 0 0 0-2.817.262L9.614 15.57 5.11 12.506c-.918-.626-2.161-.372-2.773.566s-.364 2.205.555 2.83L10.386 21 21.537 7.347a2.069 2.069 0 0 0-.257-2.874z"/></symbol>
<symbol id="check-circle" viewBox="0 0 24 24" stroke="none"><path d="M20.485 3.515c-4.686-4.686-12.284-4.686-16.971 0-4.686 4.687-4.686 12.284 0 16.971 4.686 4.686 12.284 4.686 16.971 0s4.687-12.285 0-16.971zm-2.726 5.136l-6.61 7.711L6.4 12.8a1 1 0 0 1 1.2-1.6l3.25 2.438 5.39-6.289c.36-.418.992-.467 1.41-.108.42.359.469.991.109 1.41z"/></symbol>
<symbol id="cloud-upload" viewBox="0 0 24 24" stroke="none"><path d="M18.999 10.025L19 10a7 7 0 1 0-14 0l.001.025A5.499 5.499 0 0 0 5.5 21H10v-4H7.414c-.891 0-1.337-1.077-.707-1.707L12 10l5.293 5.293c.63.63.184 1.707-.707 1.707H14v4h4.5a5.5 5.5 0 0 0 .499-10.975z"/></symbol>
<symbol id="dollar" viewBox="0 0 24 24" stroke="none"><path d="M15 10h-5c-.551 0-1-.449-1-1s.449-1 1-1h6a2 2 0 0 0 0-4h-1V1a1 1 0 0 0-2 0v3h-2V1a1 1 0 0 0-2 0v3.101A5.009 5.009 0 0 0 5 9c0 2.757 2.243 5 5 5h5c.551 0 1 .449 1 1s-.449 1-1 1H8a2 2 0 0 0 0 4h1v3a1 1 0 0 0 2 0v-3h2v3a1 1 0 0 0 2 0v-3c2.757 0 5-2.243 5-5s-2.243-5-5-5z"/></symbol>
<symbol id="edit" viewBox="0 0 24 24" stroke="none"><path d="M7.667 12.09L6 18l5.91-1.667L20.243 8 16 3.757zM23.121.879A2.976 2.976 0 0 0 21 0c-.801 0-1.555.312-2.121.879l-1.464 1.464 4.243 4.243 1.464-1.464C23.688 4.555 24 3.802 24 3s-.312-1.555-.879-2.121zM18 15a1 1 0 0 0-1 1v5c0 .551-.448 1-1 1H3c-.552 0-1-.449-1-1V8c0-.551.448-1 1-1h5a1 1 0 1 0 0-2H3C1.346 5 0 6.346 0 8v13c0 1.654 1.346 3 3 3h13c1.654 0 3-1.346 3-3v-5a1 1 0 0 0-1-1z"/></symbol>
<symbol id="ellipsis-vertical" viewBox="0 0 24 24" stroke="none"><path d="M12 6a3 3 0 1 0 0-6 3 3 0 0 0 0 6zm0 3a3 3 0 1 0 0 6 3 3 0 0 0 0-6zm0 9a3 3 0 1 0 0 6 3 3 0 0 0 0-6z"/></symbol>
<symbol id="favorite" viewBox="0 0 24 24" stroke="none"><path d="M23.596 10.425c.791-.819.354-2.246-.74-2.414l-6.647-1.022a.056.056 0 0 1-.041-.032L13.342.886a1.463 1.463 0 0 0-2.69.001L7.83 6.961a.052.052 0 0 1-.041.032L1.143 8.022c-1.094.169-1.53 1.596-.738 2.414l4.812 4.974a.061.061 0 0 1 .016.052l-1.075 6.674c-.21 1.301 1.077 2.292 2.177 1.677l5.645-3.154a.052.052 0 0 1 .051 0l5.648 3.148c1.101.614 2.386-.379 2.176-1.679l-1.082-6.673a.062.062 0 0 1 .016-.052z"/></symbol>
<symbol id="file-dollars" viewBox="0 0 24 24" stroke="none"><path d="M15 0H4a2 2 0 0 0-2 2v20a2 2 0 0 0 2 2h16a2 2 0 0 0 2-2V7h-7zm-2 18.949v.551a1 1 0 0 1-2 0V19h-1a1 1 0 0 1 0-2h2.5a.5.5 0 0 0 0-1h-1A2.503 2.503 0 0 1 9 13.5c0-1.208.86-2.217 2-2.45v-.55a1 1 0 0 1 2 0v.5h.5a1 1 0 0 1 0 2h-2a.5.5 0 0 0 0 1h1c1.378 0 2.5 1.122 2.5 2.5 0 1.207-.86 2.217-2 2.449zM17 0v5h5z"/></symbol>
<symbol id="filter" viewBox="0 0 24 24" stroke="none"><path d="M23.686 2.671A2.981 2.981 0 0 0 20.996 1H3A2.98 2.98 0 0 0 .311 2.671C.101 3.094 0 3.547 0 4c.001.649.214 1.296.639 1.851L9 15.967V23l4.894-2.447A2.003 2.003 0 0 0 15 18.764v-2.797l8.38-10.144a2.991 2.991 0 0 0 .306-3.152z"/></symbol>
<symbol id="graduation-cap" viewBox="0 0 24 24" stroke="none"><path d="M12 15.124l-.673-.241L4 12.264V19c2.136 1.862 4.93 3 8 3s5.864-1.138 8-3v-6.736l-7.326 2.619zM23.99 8a1.124 1.124 0 0 0-.682-1.149L12 2 .694 6.851c-.956.41-.914 1.78.066 2.13L12 13l10-3.575V16a1 1 0 0 0 2 0V8z"/></symbol>
<symbol id="graph-bar" viewBox="0 0 24 24" stroke="none"><path d="M16 2.004a2 2 0 0 0-2-2h-1a2 2 0 0 0-2 2v18h5zm7 4a2 2 0 0 0-2-2h-1a2 2 0 0 0-2 2v14h5zm-14 4a2 2 0 0 0-2-2H6a2 2 0 0 0-2 2v10h5zM23 22H2V1a1 1 0 1 0-2 0v23h23a1 1 0 1 0 0-2z"/></symbol>
<symbol id="images" viewBox="0 0 24 24" stroke="none"><path d="M17 22H5c-1.654 0-3-1.346-3-3V7a1 1 0 0 0-2 0v12c0 2.757 2.243 5 5 5h12a1 1 0 0 0 0-2zm5-22H6a2 2 0 0 0-2 2v15.999a2 2 0 0 0 2 2h16a2 2 0 0 0 2-2V2a2 2 0 0 0-2-2zM7 16l5-8 3 4 2-2 4 6z"/></symbol>
<symbol id="inbox-download" viewBox="0 0 24 24" stroke="none"><path d="M15 9h-2V7a1 1 0 0 0-2 0v2H9a.999.999 0 0 0-.707 1.707L12 14.414l3.707-3.707A.999.999 0 0 0 15 9zm7.082-6.309A2 2 0 0 0 20.106 1H3.894a2 2 0 0 0-1.976 1.691L0 15v6.001C0 22.105.895 23 1.999 23H22a2 2 0 0 0 2-1.999V15zM15 15a3 3 0 1 1-6 0H3.036L4.75 4h14.5l1.714 11z"/></symbol>
<symbol id="lock" viewBox="0 0 24 24" stroke="none"><path d="M18 9.48V6c0-3.309-2.691-6-6-6S6 2.691 6 6v3.48a8.5 8.5 0 1 0 12 0zm-6 8.02a2 2 0 1 1 .001-4.001A2 2 0 0 1 12 17.5zm4-9.499C14.808 7.364 13.447 7 12 7s-2.808.364-4 1.001V6c0-2.206 1.794-4 4-4s4 1.794 4 4z"/></symbol>
<symbol id="lock-off" viewBox="0 0 24 24" stroke="none"><path d="M23.707 22.293l-3.782-3.782A8.39 8.39 0 0 0 20.5 15.5 8.472 8.472 0 0 0 18 9.48V6c0-3.309-2.691-6-6-6-2.871 0-5.274 2.028-5.861 4.726L1.707.293A.999.999 0 1 0 .293 1.707l22 22a.997.997 0 0 0 1.414 0 .999.999 0 0 0 0-1.414zM16 8.001a8.461 8.461 0 0 0-7.026-.441L8 6.586V6c0-2.206 1.794-4 4-4s4 1.794 4 4zM3.5 15.5A8.5 8.5 0 0 0 12 24a8.462 8.462 0 0 0 4.853-1.526L5.027 10.647A8.454 8.454 0 0 0 3.5 15.5z"/></symbol>
<symbol id="page-check" viewBox="0 0 24 24" stroke="none"><path d="M16 0v6h6zm-2 0H4a2 2 0 0 0-2 2v20a2 2 0 0 0 2 2h16a2 2 0 0 0 2-2V8h-8zm.168 12.059a1 1 0 1 1 1.664 1.11L11.277 20l-3.832-2.555a1 1 0 1 1 1.11-1.664l2.168 1.445z"/></symbol>
<symbol id="page-content" viewBox="0 0 24 24" stroke="none"><path d="M16 0v6h6zm-2 0H4a2 2 0 0 0-2 2v20a2 2 0 0 0 2 2h16a2 2 0 0 0 2-2V8h-8zm3 20H7c-.55 0-1-.45-1-1s.45-1 1-1h10c.55 0 1 .45 1 1s-.45 1-1 1zm0-7c.55 0 1 .45 1 1s-.45 1-1 1H7c-.55 0-1-.45-1-1s.45-1 1-1z"/></symbol>
<symbol id="paperclip" viewBox="0 0 24 24" stroke="none"><path d="M21.056 2.944A6.59 6.59 0 0 0 16.363 1c-1.774 0-3.44.69-4.693 1.944-.283.282-.439.657-.439 1.057s.156.775.438 1.057c.271.271.656.426 1.057.427a1.5 1.5 0 0 0 1.057-.427c1.374-1.373 3.785-1.373 5.158 0 .688.689 1.068 1.605 1.068 2.579s-.38 1.89-1.068 2.579l-8.726 8.726c-1.374 1.373-3.784 1.373-5.158 0-.687-.69-1.067-1.605-1.067-2.579s.38-1.89 1.068-2.579l3.718-3.718a1.08 1.08 0 0 1 1.522 0c.203.203.315.474.315.761 0 .288-.112.559-.315.761l-2.657 2.657c-.283.282-.439.657-.439 1.057s.156.775.438 1.057c.541.542 1.573.542 2.114 0l2.657-2.657a4.039 4.039 0 0 0 1.19-2.875 4.031 4.031 0 0 0-1.19-2.875c-.767-.767-1.788-1.189-2.875-1.189s-2.106.422-2.874 1.188L2.944 11.67C1.69 12.922 1 14.59 1 16.363s.69 3.439 1.944 4.693A6.59 6.59 0 0 0 7.637 23c1.774 0 3.44-.69 4.693-1.944l8.726-8.726C22.31 11.078 23 9.41 23 7.637s-.69-3.439-1.944-4.693z"/></symbol>
<symbol id="pencil" viewBox="0 0 24 24" stroke="none"><path d="M2.526 15.046L0 24l8.954-2.526 10.035-10.035-6.428-6.428zM22.668 1.332A4.512 4.512 0 0 0 19.454 0a4.513 4.513 0 0 0-3.214 1.332l-2.262 2.262 6.428 6.428 2.262-2.262c.859-.859 1.332-2 1.332-3.214a4.512 4.512 0 0 0-1.332-3.214z"/></symbol>
<symbol id="piggy-bank" viewBox="0 0 24 24" stroke="none"><path d="M20.91 8A5.98 5.98 0 0 0 19 4.537V1l-5 2H6a6 6 0 0 0-6 6v5a5.996 5.996 0 0 0 4 5.651V21a2 2 0 0 0 4 0v-1h6v1a2 2 0 0 0 4 0v-1.809A6.007 6.007 0 0 0 20.651 16H24V8zM14 7H6c-.55 0-1-.45-1-1s.45-1 1-1h8c.55 0 1 .45 1 1s-.45 1-1 1zm3 4a1 1 0 1 1 0-2 1 1 0 0 1 0 2z"/></symbol>
<symbol id="printer" viewBox="0 0 24 24" stroke="none"><path d="M22 2h-3.465l-2-2h-9.07l-2 2H2C.9 2 0 2.9 0 4v4c0 1.1.9 2 2 2h20c1.1 0 2-.9 2-2V4c0-1.1-.9-2-2-2zm-6 5a1 1 0 1 1 0-2 1 1 0 1 1 0 2zm4 0a1 1 0 1 1 0-2 1 1 0 1 1 0 2zM4 24h16V12H4zm5-9h6c.55 0 1 .45 1 1s-.45 1-1 1H9c-.55 0-1-.45-1-1s.45-1 1-1zm0 4h6c.55 0 1 .45 1 1s-.45 1-1 1H9c-.55 0-1-.45-1-1s.45-1 1-1z"/></symbol>
<symbol id="send-down" viewBox="0 0 24 24" stroke="none"><path d="M20 12v6c0 1.103-.897 2-2 2H6c-1.103 0-2-.897-2-2v-6H0v6c0 3.309 2.691 6 6 6h12c3.309 0 6-2.691 6-6v-6zm-8 4l5.293-5.293c.63-.63.184-1.707-.707-1.707H14V2a2 2 0 00-4 0v7H7.414c-.891 0-1.337 1.077-.707 1.707z"/></symbol>
<symbol id="send-up" viewBox="0 0 24 24" stroke="none"><path d="M7.414 7H10v7a2 2 0 004 0V7h2.586c.891 0 1.337-1.077.707-1.707L12 0 6.707 5.293C6.077 5.923 6.523 7 7.414 7zM20 12v6c0 1.103-.897 2-2 2H6c-1.103 0-2-.897-2-2v-6H0v6c0 3.309 2.691 6 6 6h12c3.309 0 6-2.691 6-6v-6z"/></symbol>
<symbol id="search" viewBox="0 0 24 24" stroke="none"><path d="M22.414 19.586l-4.801-4.801A8.942 8.942 0 0 0 19 10a9 9 0 1 0-9 9 8.942 8.942 0 0 0 4.785-1.387l4.801 4.801c.39.391.902.586 1.414.586s1.024-.195 1.414-.586a2 2 0 0 0 0-2.828zM10 15c-2.757 0-5-2.243-5-5s2.243-5 5-5 5 2.243 5 5-2.243 5-5 5z"/></symbol>
<symbol id="share" viewBox="0 0 24 24" stroke="none"><path d="M14.515 2c-.891 0-1.337 1.077-.707 1.707l1.828 1.829-5.657 5.657a2 2 0 1 0 2.828 2.828l5.657-5.657 1.829 1.828c.63.63 1.707.184 1.707-.707V2zM20.5 15c-.827 0-1.5.673-1.5 1.5v2.2a.3.3 0 0 1-.3.3H5.3a.3.3 0 0 1-.3-.3V5.3a.3.3 0 0 1 .3-.3h2.2C8.327 5 9 4.327 9 3.5S8.327 2 7.5 2H5.3C3.48 2 2 3.48 2 5.3v13.4C2 20.52 3.48 22 5.3 22h13.4c1.819 0 3.3-1.48 3.3-3.3v-2.2c0-.827-.673-1.5-1.5-1.5z"/></symbol>
<symbol id="shield-check" viewBox="0 0 24 24" stroke="none"><path d="M12 0L2 6v6c.131 4.865 1.794 9.316 10 12 8.206-2.684 9.869-7.135 10-12V6zm4.332 9.555l-4.555 6.832-3.832-2.555a1 1 0 1 1 1.11-1.664l2.168 1.445 3.445-5.168a1 1 0 1 1 1.664 1.11z"/></symbol>
<symbol id="stopsign-alert" viewBox="0 0 24 24" stroke="none"><path d="M16.985 0H7.043L0 7.016v9.94L7.043 24h9.943L24 16.956v-9.94zM11 6a1 1 0 0 1 2 0v7a1 1 0 0 1-2 0zm1 13a1.5 1.5 0 1 1 .001-3.001A1.5 1.5 0 0 1 12 19z"/></symbol>
<symbol id="time" viewBox="0 0 24 24" stroke="none"><path d="M12 0C5.373 0 0 5.373 0 12s5.373 12 12 12 12-5.373 12-12S18.627 0 12 0zm1 14H7a1 1 0 0 1 0-2h4V6a1 1 0 0 1 2 0z"/></symbol>
<symbol id="trash" viewBox="0 0 24 24" stroke="none"><path d="M3.883 22.125A2 2 0 0 0 5.879 24h12.242a2 2 0 0 0 1.996-1.875L21 8H3zM21 4h-3V3c0-1.654-1.346-3-3-3H9C7.346 0 6 1.346 6 3v1H3a1 1 0 0 0 0 2h18a1 1 0 0 0 0-2zm-5 0H8V3c0-.551.449-1 1-1h6c.551 0 1 .449 1 1z"/></symbol>
<symbol id="user" viewBox="0 0 24 24" stroke="none"><path d="M12 14c-5.514 0-10 2.91-10 6.487V24h20v-3.513C22 16.91 17.514 14 12 14zm0-2c3.309 0 6-2.691 6-6s-2.691-6-6-6-6 2.691-6 6 2.691 6 6 6z"/></symbol>
<symbol id="user-heart" viewBox="0 0 24 24" stroke="none"><path d="M8 13c3.032 0 5.5-2.467 5.5-5.5S11.032 2 8 2 2.5 4.467 2.5 7.5 4.968 13 8 13zm13.1 1.02a3.231 3.231 0 0 0-3.1 1.497 3.23 3.23 0 0 0-3.1-1.497c-1.772.193-3.161 1.877-2.859 3.634.483 2.817 2.973 4.808 5.959 6.301 2.986-1.493 5.476-3.484 5.959-6.301.301-1.757-1.087-3.442-2.859-3.634zm-11.03 3.972a4.887 4.887 0 0 1 .337-2.742C9.647 15.088 8.839 15 8 15c-4.411 0-8 2.411-8 5.375V24h14.202c-2.372-1.726-3.737-3.708-4.132-6.008z"/></symbol>
<symbol id="user-list" viewBox="0 0 24 24" stroke="none"><path d="M8 12c3.032 0 5.5-2.467 5.5-5.5S11.032 1 8 1 2.5 3.467 2.5 6.5 4.968 12 8 12zm9-8h6c.55 0 1-.45 1-1s-.45-1-1-1h-6c-.55 0-1 .45-1 1s.45 1 1 1zm6 8h-6c-.55 0-1 .45-1 1s.45 1 1 1h6c.55 0 1-.45 1-1s-.45-1-1-1zM8 14c-4.411 0-8 2.411-8 5.375V23h16v-3.625C16 16.411 12.412 14 8 14zm15-7h-6c-.55 0-1 .45-1 1s.45 1 1 1h6c.55 0 1-.45 1-1s-.45-1-1-1z"/></symbol>
<symbol id="wallet" viewBox="0 0 24 24" stroke="none"><path d="M22 5H4c-.55 0-1-.45-1-1s.45-1 1-1h19c.55 0 1-.45 1-1s-.45-1-1-1H3C1.35 1 0 2.35 0 4v16a3 3 0 0 0 3 3h19a2 2 0 0 0 2-2V7a2 2 0 0 0-2-2zm-4 11a2 2 0 1 1 .001-4.001A2 2 0 0 1 18 16z"/></symbol>
<symbol id="warning" viewBox="0 0 24 24" stroke="none"><path d="M23.512 17.5L15.178 2.852c-1.405-2.47-4.951-2.47-6.356 0L.488 17.5C-.907 19.951.855 23 3.666 23h16.668c2.811 0 4.573-3.049 3.178-5.5zM11 6.999a1 1 0 0 1 2 0V14a1 1 0 0 1-2 0zM12 20a1.5 1.5 0 1 1 .001-3.001A1.5 1.5 0 0 1 12 20z"/></symbol>

<!-- File types -->
<symbol id="pdf" viewBox="0 0 56 56" stroke="none" fill=""><path d="M36.985 0H7.963C7.155 0 6.5.655 6.5 1.926V55c0 .345.655 1 1.463 1h40.074c.808 0 1.463-.655 1.463-1V12.978c0-.696-.093-.92-.257-1.085L37.607.257A.884.884 0 0 0 36.985 0z" fill="#e9e9e0"/><path fill="#d9d7ca" d="M37.5.151V12h11.849z"/><path d="M19.514 33.324c-.348 0-.682-.113-.967-.326-1.041-.781-1.181-1.65-1.115-2.242.182-1.628 2.195-3.332 5.985-5.068 1.504-3.296 2.935-7.357 3.788-10.75-.998-2.172-1.968-4.99-1.261-6.643.248-.579.557-1.023 1.134-1.215a4.91 4.91 0 0 1 1.016-.172c.504 0 .947.649 1.261 1.049.295.376.964 1.173-.373 6.802 1.348 2.784 3.258 5.62 5.088 7.562 1.311-.237 2.439-.358 3.358-.358 1.566 0 2.515.365 2.902 1.117.32.622.189 1.349-.39 2.16-.557.779-1.325 1.191-2.22 1.191-1.216 0-2.632-.768-4.211-2.285-2.837.593-6.15 1.651-8.828 2.822-.836 1.774-1.637 3.203-2.383 4.251-1.025 1.435-1.909 2.105-2.784 2.105zm2.662-5.126c-2.137 1.201-3.008 2.188-3.071 2.744-.01.092-.037.334.431.692.149-.047 1.019-.444 2.64-3.436zm13.637-4.442c.815.627 1.014.944 1.547.944.234 0 .901-.01 1.21-.441.149-.209.207-.343.23-.415-.123-.065-.286-.197-1.175-.197-.505.001-1.14.023-1.812.109zm-7.47-6.582a71.291 71.291 0 0 1-2.674 7.564 49.966 49.966 0 0 1 6.496-2.02c-1.35-1.568-2.699-3.526-3.822-5.544zm-.607-8.462c-.098.033-1.33 1.757.096 3.216.949-2.115-.053-3.23-.096-3.216zM48.037 56H7.963A1.463 1.463 0 0 1 6.5 54.537V39h43v15.537c0 .808-.655 1.463-1.463 1.463z" fill="#cc4b4c"/><g fill="#fff"><path d="M17.385 53h-1.641V42.924h2.898c.428 0 .852.068 1.271.205.419.137.795.342 1.128.615.333.273.602.604.807.991s.308.822.308 1.306c0 .511-.087.973-.26 1.388a2.9 2.9 0 0 1-.725 1.046c-.31.282-.684.501-1.121.656s-.921.232-1.449.232h-1.217V53zm0-8.832v3.992h1.504c.2 0 .398-.034.595-.103.196-.068.376-.18.54-.335.164-.155.296-.371.396-.649.1-.278.15-.622.15-1.032 0-.164-.023-.354-.068-.567a1.637 1.637 0 0 0-.28-.615 1.657 1.657 0 0 0-.595-.492c-.255-.132-.593-.198-1.012-.198h-1.23zM32.219 47.682c0 .829-.089 1.538-.267 2.126s-.403 1.08-.677 1.477-.581.709-.923.937-.672.398-.991.513a4.094 4.094 0 0 1-.875.219c-.264.03-.46.046-.588.046h-3.814V42.924h3.035c.848 0 1.593.135 2.235.403s1.176.627 1.6 1.073.74.955.95 1.524c.21.57.315 1.156.315 1.758zm-4.867 4.115c1.112 0 1.914-.355 2.406-1.066s.738-1.741.738-3.09c0-.419-.05-.834-.15-1.244-.101-.41-.294-.781-.581-1.114s-.677-.602-1.169-.807-1.13-.308-1.914-.308h-.957v7.629h1.627zM36.266 44.168v3.172h4.211v1.121h-4.211V53h-1.668V42.924H40.9v1.244h-4.634z"/></g></symbol>

<!-- New window -->
<symbol id="new-window" viewBox="0 0 100 125" xmlns="http://www.w3.org/2000/svg">
<path fill="none" stroke="#000" stroke-width="11" stroke-linecap="round" stroke-linejoin="round" stroke-miterlimit="10" d="M86.639 13.996L47.897 53.203M63.978 12.674h23.381v23.225M48.367 23.04H16.242v61.841h61.841l-.001-32.126"/>
</symbol>

<!-- Calculator -->
<symbol id="calculator" viewBox="0 0 24 24" xmlns="http://www.w3.org/2000/svg">
<path d="M20 0H4a2 2 0 0 0-2 2v20a2 2 0 0 0 2 2h16a2 2 0 0 0 2-2V2a2 2 0 0 0-2-2zM6.5 21a1.5 1.5 0 1 1 .001-3.001A1.5 1.5 0 0 1 6.5 21zm0-5a1.5 1.5 0 1 1 .001-3.001A1.5 1.5 0 0 1 6.5 16zm5.5 5a1.5 1.5 0 1 1 .001-3.001A1.5 1.5 0 0 1 12 21zm0-5a1.5 1.5 0 1 1 .001-3.001A1.5 1.5 0 0 1 12 16zm5.5 5a1.5 1.5 0 1 1 .001-3.001A1.5 1.5 0 0 1 17.5 21zm0-5a1.5 1.5 0 1 1 .001-3.001A1.5 1.5 0 0 1 17.5 16zM19 9H5V3h14z"/>
</symbol>

</svg>
