<?xml version="1.0" encoding="UTF-8" standalone="no"?>
<!DOCTYPE svg PUBLIC "-//W3C//DTD SVG 1.1//EN" "http://www.w3.org/Graphics/SVG/1.1/DTD/svg11.dtd">
<svg width="100%" height="100%" viewBox="0 0 169 117" version="1.1" xmlns="http://www.w3.org/2000/svg" xmlns:xlink="http://www.w3.org/1999/xlink" xml:space="preserve" xmlns:serif="http://www.serif.com/" style="fill-rule:evenodd;clip-rule:evenodd;stroke-linejoin:round;stroke-miterlimit:2;">
    <g transform="matrix(1,0,0,1,-27,-87)">
        <g id="Artboard2" transform="matrix(0.743026,0,0,1.36222,6.91619,-31.8728)">
            <rect x="27.03" y="87.264" width="227.375" height="85.875" style="fill:none;"/>
            <g transform="matrix(0.651666,0,0,0.355454,-685.675,-99.4295)">
                <path d="M1328.66,676.413C1328.42,676.413 1328.18,676.374 1327.94,676.292C1326.79,675.898 1326.18,674.651 1326.57,673.506C1327.49,670.79 1328.32,668.042 1329.06,665.27C1330.71,664.865 1332.36,664.439 1334,663.99C1333.06,667.676 1331.98,671.327 1330.74,674.929C1330.42,675.84 1329.57,676.413 1328.66,676.413ZM1329.95,661.76C1330.48,659.578 1330.95,657.384 1331.37,655.179C1331.58,654.1 1332.53,653.35 1333.59,653.35C1333.73,653.35 1333.87,653.363 1334.02,653.391C1335.24,653.627 1336.04,654.81 1335.81,656.034L1335.8,656.048C1335.51,657.537 1335.19,659.023 1334.85,660.504C1333.22,660.945 1331.59,661.363 1329.95,661.76Z" style="fill:url(#_Linear1);"/>
            </g>
            <g transform="matrix(0.651666,0,0,0.355454,-685.675,-99.4295)">
                <path d="M1336.14,638.84C1336.08,638.84 1336.02,638.838 1335.96,638.834C1334.69,638.736 1333.74,637.631 1333.83,636.363C1334.12,632.32 1334.25,628.267 1334.24,624.215C1335.81,623.566 1337.37,622.922 1338.93,622.28C1338.98,627.093 1338.81,631.906 1338.45,636.704C1338.35,637.917 1337.34,638.84 1336.14,638.84Z" style="fill:url(#_Linear2);"/>
            </g>
            <g transform="matrix(0.651666,0,0,0.355454,-685.675,-99.4295)">
                <path d="M1234.94,654.791C1234.5,654.791 1234.06,654.656 1233.68,654.378L1229.69,651.447C1228.39,650.428 1227.13,649.369 1225.9,648.274C1223.44,646.086 1221.11,643.757 1218.9,641.322C1218.09,640.426 1218.16,639.043 1219.06,638.232C1219.47,637.853 1220,637.666 1220.52,637.666C1221.12,637.666 1221.71,637.909 1222.15,638.386L1222.16,638.398C1224.25,640.734 1226.45,642.965 1228.78,645.055C1229.94,646.101 1231.13,647.11 1232.35,648.079L1236.1,650.871L1236.21,650.953C1237.16,651.654 1237.35,652.988 1236.65,653.932C1236.24,654.494 1235.59,654.791 1234.94,654.791Z" style="fill:rgb(152,199,235);fill-rule:nonzero;"/>
            </g>
            <g transform="matrix(0.651666,0,0,0.355454,-685.675,-99.4295)">
                <path d="M1270.46,668.526C1270.35,668.526 1270.24,668.518 1270.13,668.5C1263.69,667.423 1257.32,665.776 1251.18,663.453C1250.12,663.053 1249.59,661.869 1249.99,660.809C1250.3,659.989 1251.08,659.483 1251.9,659.483C1252.14,659.483 1252.39,659.526 1252.63,659.616L1252.65,659.625C1258.49,661.91 1264.59,663.565 1270.8,664.674C1271.85,664.863 1272.55,665.871 1272.37,666.927C1272.2,667.866 1271.38,668.526 1270.46,668.526Z" style="fill:url(#_Linear3);"/>
            </g>
            <g transform="matrix(0.651666,0,0,0.355454,-685.675,-99.4295)">
                <path d="M1327.79,665.53C1327.06,665.53 1326.4,665.033 1326.22,664.294C1326.02,663.429 1326.55,662.56 1327.42,662.354L1327.43,662.35C1328.27,662.159 1329.11,661.962 1329.95,661.76C1331.59,661.363 1333.22,660.945 1334.85,660.504C1338.54,659.507 1342.19,658.398 1345.82,657.185C1345.98,657.133 1346.14,657.107 1346.29,657.107C1346.92,657.107 1347.51,657.504 1347.72,658.131C1347.98,658.911 1347.56,659.755 1346.79,660.025C1342.57,661.488 1338.31,662.815 1334,663.99C1332.36,664.439 1330.71,664.865 1329.06,665.27C1328.76,665.342 1328.46,665.414 1328.17,665.485C1328.04,665.516 1327.91,665.53 1327.79,665.53Z" style="fill:url(#_Linear4);"/>
            </g>
            <g transform="matrix(0.651666,0,0,0.355454,-685.675,-99.4295)">
                <path d="M1364.2,652.931C1363.68,652.931 1363.17,652.629 1362.94,652.118C1362.62,651.42 1362.93,650.595 1363.63,650.277L1363.64,650.27C1369.47,647.69 1375.19,644.843 1380.76,641.739C1380.96,641.629 1381.17,641.577 1381.38,641.577C1381.83,641.577 1382.27,641.814 1382.5,642.235C1382.85,642.847 1382.63,643.621 1382.02,643.968C1376.41,647.174 1370.66,650.123 1364.78,652.805C1364.59,652.891 1364.4,652.931 1364.2,652.931Z" style="fill:url(#_Linear5);"/>
            </g>
            <g transform="matrix(0.651666,0,0,0.355454,-685.675,-99.4295)">
                <path d="M1397.7,633.755C1397.35,633.755 1397,633.591 1396.78,633.282C1396.42,632.776 1396.54,632.076 1397.05,631.718L1397.07,631.706C1402.34,628.114 1407.45,624.27 1412.36,620.174C1412.53,620.027 1412.75,619.955 1412.96,619.955C1413.23,619.955 1413.5,620.07 1413.68,620.292C1414.01,620.687 1413.96,621.272 1413.58,621.607C1408.7,625.837 1403.61,629.818 1398.34,633.549C1398.15,633.688 1397.92,633.755 1397.7,633.755Z" style="fill:url(#_Linear6);"/>
            </g>
            <g transform="matrix(0.651666,0,0,0.355454,-685.675,-99.4295)">
                <path d="M1334.24,624.215C1334.23,621.938 1334.17,619.662 1334.07,617.389C1334.01,616.082 1335.02,614.973 1336.33,614.913C1336.36,614.911 1336.4,614.91 1336.44,614.91C1337.7,614.91 1338.74,615.901 1338.8,617.17L1338.8,617.185C1338.87,618.883 1338.91,620.581 1338.93,622.28C1337.37,622.922 1335.81,623.566 1334.24,624.215Z" style="fill:rgb(152,199,235);fill-rule:nonzero;"/>
            </g>
            <g transform="matrix(0.651666,0,0,0.355454,-685.675,-99.4295)">
                <path d="M1334.43,600.537C1333.28,600.537 1332.27,599.712 1332.07,598.543C1331.01,592.319 1329.54,586.169 1327.59,580.189C1327.17,578.921 1327.86,577.558 1329.13,577.145C1329.38,577.064 1329.63,577.025 1329.88,577.025C1330.9,577.025 1331.84,577.672 1332.18,578.69L1332.18,578.696C1334.2,584.93 1335.71,591.307 1336.79,597.742C1337.01,599.047 1336.13,600.283 1334.83,600.503C1334.69,600.526 1334.56,600.537 1334.43,600.537Z" style="fill:rgb(152,199,235);fill-rule:nonzero;"/>
            </g>
            <g transform="matrix(0.651666,0,0,0.355454,-685.675,-99.4295)">
                <path d="M1322.32,564.19C1321.47,564.19 1320.64,563.735 1320.19,562.929C1317.18,557.464 1313.58,552.335 1309.33,547.856C1308.39,546.874 1308.43,545.323 1309.41,544.39C1309.89,543.939 1310.49,543.715 1311.1,543.715C1311.75,543.715 1312.4,543.97 1312.88,544.476L1312.88,544.481C1317.47,549.325 1321.29,554.806 1324.46,560.587C1325.1,561.764 1324.67,563.243 1323.49,563.889C1323.12,564.093 1322.72,564.19 1322.32,564.19Z" style="fill:rgb(152,199,235);fill-rule:nonzero;"/>
            </g>
            <g transform="matrix(0.651666,0,0,0.355454,-685.675,-99.4295)">
                <path d="M1295.82,537.06C1295.44,537.06 1295.06,536.973 1294.7,536.788L1294.7,536.787C1289.24,534.005 1283.26,532.202 1277.15,531.188C1275.79,530.964 1274.88,529.685 1275.1,528.33C1275.3,527.113 1276.36,526.25 1277.55,526.25C1277.68,526.25 1277.82,526.261 1277.96,526.284C1284.5,527.371 1290.96,529.323 1296.95,532.391C1298.16,533.013 1298.64,534.501 1298.02,535.715C1297.59,536.569 1296.72,537.06 1295.82,537.06Z" style="fill:rgb(152,199,235);fill-rule:nonzero;"/>
            </g>
            <g transform="matrix(0.651666,0,0,0.355454,-685.675,-99.4295)">
                <path d="M1239.47,533.937C1238.42,533.937 1237.45,533.262 1237.13,532.211C1236.73,530.919 1237.45,529.549 1238.74,529.15C1245.06,527.19 1251.59,525.967 1258.17,525.47C1258.24,525.465 1258.3,525.463 1258.36,525.463C1259.64,525.463 1260.72,526.448 1260.82,527.744C1260.92,529.102 1259.9,530.287 1258.54,530.389L1258.54,530.39C1252.32,530.846 1246.14,531.992 1240.19,533.827C1239.95,533.902 1239.71,533.937 1239.47,533.937Z" style="fill:rgb(152,199,235);fill-rule:nonzero;"/>
            </g>
            <g transform="matrix(0.651666,0,0,0.355454,-685.675,-99.4295)">
                <path d="M1207.57,554.47C1207.04,554.47 1206.5,554.297 1206.06,553.94C1205.02,553.107 1204.85,551.594 1205.68,550.555C1209.89,545.296 1215.05,540.897 1220.68,537.359C1221.08,537.106 1221.53,536.986 1221.97,536.986C1222.78,536.986 1223.57,537.388 1224.03,538.122C1224.74,539.258 1224.4,540.757 1223.27,541.471L1223.26,541.475C1218.02,544.752 1213.28,548.795 1209.45,553.568C1208.97,554.162 1208.27,554.47 1207.57,554.47Z" style="fill:rgb(152,199,235);fill-rule:nonzero;"/>
            </g>
            <g transform="matrix(0.651666,0,0,0.355454,-685.675,-99.4295)">
                <path d="M1197.03,590.504C1195.81,590.504 1194.78,589.561 1194.68,588.328C1194.17,581.698 1194.67,574.913 1196.5,568.423C1196.79,567.366 1197.75,566.675 1198.8,566.675C1199.01,566.675 1199.23,566.704 1199.45,566.764C1200.72,567.12 1201.46,568.44 1201.1,569.712L1201.1,569.718C1199.44,575.601 1198.95,581.815 1199.38,587.981C1199.47,589.28 1198.49,590.407 1197.2,590.498C1197.14,590.502 1197.08,590.504 1197.03,590.504Z" style="fill:rgb(152,199,235);fill-rule:nonzero;"/>
            </g>
            <g transform="matrix(0.651666,0,0,0.355454,-685.675,-99.4295)">
                <path d="M1209.15,626.604C1208.38,626.604 1207.64,626.214 1207.22,625.513C1203.85,619.882 1201,613.92 1198.84,607.694C1198.42,606.494 1199.05,605.183 1200.25,604.765C1200.5,604.678 1200.76,604.636 1201.01,604.636C1201.96,604.636 1202.85,605.232 1203.18,606.182L1203.19,606.196C1205.21,612.109 1207.88,617.815 1211.08,623.217C1211.71,624.284 1211.35,625.66 1210.29,626.291C1209.93,626.503 1209.54,626.604 1209.15,626.604Z" style="fill:rgb(152,199,235);fill-rule:nonzero;"/>
            </g>
            <g transform="matrix(0.651666,0,0,0.355454,-685.675,-99.4295)">
                <path d="M1426.94,608.415C1426.75,608.415 1426.57,608.348 1426.42,608.212C1426.11,607.926 1426.09,607.444 1426.38,607.136L1426.39,607.126C1430.82,602.523 1435,597.665 1438.85,592.556C1438.96,592.405 1439.13,592.325 1439.31,592.325C1439.43,592.325 1439.55,592.363 1439.66,592.442C1439.91,592.632 1439.96,592.99 1439.78,593.246C1436,598.467 1431.88,603.444 1427.49,608.172C1427.34,608.333 1427.14,608.415 1426.94,608.415Z" style="fill:url(#_Linear7);"/>
            </g>
            <g transform="matrix(0.651666,0,0,0.355454,-685.675,-99.4295)">
                <path d="M1152.36,764.548L1152.33,764.548L1152.31,764.547C1148.07,764.337 1143.84,764.04 1139.62,763.661C1139.52,763.064 1139.42,762.472 1139.31,761.88C1143.67,762.195 1148.03,762.423 1152.39,762.557C1152.94,762.575 1153.37,763.034 1153.35,763.583C1153.33,764.122 1152.89,764.548 1152.36,764.548Z" style="fill:url(#_Linear8);"/>
            </g>
            <g transform="matrix(0.651666,0,0,0.355454,-685.675,-99.4295)">
                <path d="M1171.61,764.89C1170.97,764.89 1170.45,764.374 1170.44,763.73C1170.43,763.091 1170.94,762.564 1171.57,762.541C1177.96,762.317 1184.35,761.919 1190.7,761.287C1190.75,761.282 1190.79,761.28 1190.83,761.28C1191.5,761.28 1192.07,761.785 1192.14,762.461C1192.21,763.182 1191.68,763.824 1190.96,763.896L1190.95,763.897C1184.52,764.464 1178.08,764.803 1171.63,764.89L1171.61,764.89Z" style="fill:url(#_Linear9);"/>
            </g>
            <g transform="matrix(0.651666,0,0,0.355454,-685.675,-99.4295)">
                <path d="M1209.92,761.496C1209.24,761.496 1208.64,761.003 1208.52,760.307C1208.39,759.539 1208.91,758.812 1209.68,758.676C1215.96,757.563 1222.2,756.2 1228.36,754.564C1228.49,754.529 1228.62,754.513 1228.75,754.513C1229.43,754.513 1230.05,754.966 1230.23,755.651C1230.45,756.467 1229.96,757.305 1229.14,757.522L1229.13,757.526C1222.86,759.114 1216.53,760.422 1210.16,761.477C1210.08,761.49 1210,761.496 1209.92,761.496Z" style="fill:url(#_Linear10);"/>
            </g>
            <g transform="matrix(0.651666,0,0,0.355454,-685.675,-99.4295)">
                <path d="M1247.14,751.992C1246.47,751.992 1245.84,751.574 1245.6,750.903C1245.3,750.056 1245.74,749.125 1246.58,748.814C1252.55,746.607 1258.4,744.102 1264.09,741.273C1264.34,741.149 1264.61,741.09 1264.87,741.09C1265.51,741.09 1266.13,741.445 1266.44,742.06C1266.87,742.925 1266.51,743.975 1265.65,744.405L1265.63,744.414C1259.79,747.237 1253.79,749.721 1247.7,751.896C1247.51,751.961 1247.33,751.992 1247.14,751.992Z" style="fill:url(#_Linear11);"/>
            </g>
            <g transform="matrix(0.651666,0,0,0.355454,-685.675,-99.4295)">
                <path d="M1281.61,735.193C1281,735.193 1280.41,734.894 1280.05,734.344C1279.5,733.489 1279.74,732.348 1280.58,731.785C1285.86,728.282 1290.91,724.43 1295.62,720.219C1296,719.883 1296.46,719.718 1296.93,719.718C1297.47,719.718 1298.01,719.94 1298.4,720.376C1299.12,721.186 1299.05,722.43 1298.24,723.154L1298.23,723.169C1293.31,727.46 1288.08,731.362 1282.62,734.895C1282.31,735.097 1281.96,735.193 1281.61,735.193Z" style="fill:url(#_Linear12);"/>
            </g>
            <g transform="matrix(0.651666,0,0,0.355454,-685.675,-99.4295)">
                <path d="M1310.28,709.902C1309.81,709.902 1309.34,709.747 1308.96,709.429C1308.08,708.706 1307.95,707.41 1308.66,706.524C1312.6,701.612 1316.13,696.375 1319.11,690.842C1319.49,690.122 1320.23,689.713 1321,689.713C1321.34,689.713 1321.69,689.796 1322.01,689.97C1323.05,690.531 1323.44,691.831 1322.88,692.874L1322.87,692.888C1319.72,698.639 1316.04,704.09 1311.88,709.143C1311.47,709.643 1310.88,709.902 1310.28,709.902Z" style="fill:url(#_Linear13);"/>
            </g>
            <g transform="matrix(0.651666,0,0,0.355454,-685.675,-99.4295)">
                <path d="M1290.58,670.135C1290.26,670.135 1289.93,670.134 1289.6,670.132C1288.59,670.125 1287.78,669.3 1287.79,668.289C1287.79,667.281 1288.61,666.47 1289.62,666.47C1289.62,666.47 1289.63,666.47 1289.63,666.471L1289.65,666.471C1290.49,666.487 1291.33,666.494 1292.16,666.494C1297.66,666.494 1303.17,666.163 1308.64,665.55C1308.71,665.543 1308.77,665.539 1308.84,665.539C1309.7,665.539 1310.44,666.189 1310.54,667.068C1310.65,668.005 1309.98,668.851 1309.04,668.967C1302.93,669.723 1296.76,670.135 1290.58,670.135Z" style="fill:url(#_Linear14);"/>
            </g>
            <g transform="matrix(0.651666,0,0,0.355454,-685.675,-99.4295)">
                <path d="M1114.07,760.357C1114.03,760.357 1113.99,760.354 1113.95,760.347L1113.94,760.345L1095.01,756.636C1094.77,756.588 1094.6,756.348 1094.65,756.099C1094.69,755.882 1094.89,755.73 1095.1,755.73C1095.13,755.73 1095.15,755.733 1095.18,755.737L1095.2,755.742L1114.14,759.087L1114.18,759.094C1114.52,759.155 1114.75,759.485 1114.69,759.831C1114.64,760.139 1114.37,760.357 1114.07,760.357Z" style="fill:url(#_Linear15);"/>
            </g>
            <g transform="matrix(0.651666,0,0,0.355454,-685.675,-99.4295)">
                <path d="M1139.62,763.661C1137.43,763.465 1135.24,763.246 1133.06,763.005C1132.61,762.956 1132.29,762.553 1132.33,762.104C1132.38,761.687 1132.73,761.378 1133.15,761.378C1133.17,761.378 1133.2,761.379 1133.22,761.381C1135.25,761.566 1137.28,761.733 1139.31,761.88C1139.42,762.472 1139.52,763.064 1139.62,763.661Z" style="fill:url(#_Linear16);"/>
            </g>
        </g>
    </g>
    <defs>
        <linearGradient id="_Linear1" x1="0" y1="0" x2="1" y2="0" gradientUnits="userSpaceOnUse" gradientTransform="matrix(1.43929e-11,1399.16,-1399.16,1.43929e-11,1175.4,303.069)"><stop offset="0" style="stop-color:rgb(152,199,235);stop-opacity:1"/><stop offset="1" style="stop-color:rgb(135,188,230);stop-opacity:1"/></linearGradient>
        <linearGradient id="_Linear2" x1="0" y1="0" x2="1" y2="0" gradientUnits="userSpaceOnUse" gradientTransform="matrix(1.43929e-11,1399.16,-1399.16,1.43929e-11,1175.4,303.069)"><stop offset="0" style="stop-color:rgb(152,199,235);stop-opacity:1"/><stop offset="1" style="stop-color:rgb(135,188,230);stop-opacity:1"/></linearGradient>
        <linearGradient id="_Linear3" x1="0" y1="0" x2="1" y2="0" gradientUnits="userSpaceOnUse" gradientTransform="matrix(1.43929e-11,1399.16,-1399.16,1.43929e-11,1175.4,303.069)"><stop offset="0" style="stop-color:rgb(152,199,235);stop-opacity:1"/><stop offset="1" style="stop-color:rgb(135,188,230);stop-opacity:1"/></linearGradient>
        <linearGradient id="_Linear4" x1="0" y1="0" x2="1" y2="0" gradientUnits="userSpaceOnUse" gradientTransform="matrix(1.43929e-11,1399.16,-1399.16,1.43929e-11,1175.4,303.069)"><stop offset="0" style="stop-color:rgb(152,199,235);stop-opacity:1"/><stop offset="1" style="stop-color:rgb(135,188,230);stop-opacity:1"/></linearGradient>
        <linearGradient id="_Linear5" x1="0" y1="0" x2="1" y2="0" gradientUnits="userSpaceOnUse" gradientTransform="matrix(1.43929e-11,1399.16,-1399.16,1.43929e-11,1175.4,303.069)"><stop offset="0" style="stop-color:rgb(152,199,235);stop-opacity:1"/><stop offset="1" style="stop-color:rgb(135,188,230);stop-opacity:1"/></linearGradient>
        <linearGradient id="_Linear6" x1="0" y1="0" x2="1" y2="0" gradientUnits="userSpaceOnUse" gradientTransform="matrix(1.43929e-11,1399.16,-1399.16,1.43929e-11,1175.4,303.069)"><stop offset="0" style="stop-color:rgb(152,199,235);stop-opacity:1"/><stop offset="1" style="stop-color:rgb(135,188,230);stop-opacity:1"/></linearGradient>
        <linearGradient id="_Linear7" x1="0" y1="0" x2="1" y2="0" gradientUnits="userSpaceOnUse" gradientTransform="matrix(1.43929e-11,1399.16,-1399.16,1.43929e-11,1175.4,303.069)"><stop offset="0" style="stop-color:rgb(152,199,235);stop-opacity:1"/><stop offset="1" style="stop-color:rgb(135,188,230);stop-opacity:1"/></linearGradient>
        <linearGradient id="_Linear8" x1="0" y1="0" x2="1" y2="0" gradientUnits="userSpaceOnUse" gradientTransform="matrix(1.43929e-11,1399.16,-1399.16,1.43929e-11,1175.4,303.069)"><stop offset="0" style="stop-color:rgb(152,199,235);stop-opacity:1"/><stop offset="1" style="stop-color:rgb(135,188,230);stop-opacity:1"/></linearGradient>
        <linearGradient id="_Linear9" x1="0" y1="0" x2="1" y2="0" gradientUnits="userSpaceOnUse" gradientTransform="matrix(1.43929e-11,1399.16,-1399.16,1.43929e-11,1175.4,303.069)"><stop offset="0" style="stop-color:rgb(152,199,235);stop-opacity:1"/><stop offset="1" style="stop-color:rgb(135,188,230);stop-opacity:1"/></linearGradient>
        <linearGradient id="_Linear10" x1="0" y1="0" x2="1" y2="0" gradientUnits="userSpaceOnUse" gradientTransform="matrix(1.43929e-11,1399.16,-1399.16,1.43929e-11,1175.4,303.069)"><stop offset="0" style="stop-color:rgb(152,199,235);stop-opacity:1"/><stop offset="1" style="stop-color:rgb(135,188,230);stop-opacity:1"/></linearGradient>
        <linearGradient id="_Linear11" x1="0" y1="0" x2="1" y2="0" gradientUnits="userSpaceOnUse" gradientTransform="matrix(1.43929e-11,1399.16,-1399.16,1.43929e-11,1175.4,303.069)"><stop offset="0" style="stop-color:rgb(152,199,235);stop-opacity:1"/><stop offset="1" style="stop-color:rgb(135,188,230);stop-opacity:1"/></linearGradient>
        <linearGradient id="_Linear12" x1="0" y1="0" x2="1" y2="0" gradientUnits="userSpaceOnUse" gradientTransform="matrix(1.43929e-11,1399.16,-1399.16,1.43929e-11,1175.4,303.069)"><stop offset="0" style="stop-color:rgb(152,199,235);stop-opacity:1"/><stop offset="1" style="stop-color:rgb(135,188,230);stop-opacity:1"/></linearGradient>
        <linearGradient id="_Linear13" x1="0" y1="0" x2="1" y2="0" gradientUnits="userSpaceOnUse" gradientTransform="matrix(1.43929e-11,1399.16,-1399.16,1.43929e-11,1175.4,303.069)"><stop offset="0" style="stop-color:rgb(152,199,235);stop-opacity:1"/><stop offset="1" style="stop-color:rgb(135,188,230);stop-opacity:1"/></linearGradient>
        <linearGradient id="_Linear14" x1="0" y1="0" x2="1" y2="0" gradientUnits="userSpaceOnUse" gradientTransform="matrix(1.43929e-11,1399.16,-1399.16,1.43929e-11,1175.4,303.069)"><stop offset="0" style="stop-color:rgb(152,199,235);stop-opacity:1"/><stop offset="1" style="stop-color:rgb(135,188,230);stop-opacity:1"/></linearGradient>
        <linearGradient id="_Linear15" x1="0" y1="0" x2="1" y2="0" gradientUnits="userSpaceOnUse" gradientTransform="matrix(1.43929e-11,1399.16,-1399.16,1.43929e-11,1175.4,303.069)"><stop offset="0" style="stop-color:rgb(136,189,230);stop-opacity:1"/><stop offset="1" style="stop-color:rgb(121,180,226);stop-opacity:1"/></linearGradient>
        <linearGradient id="_Linear16" x1="0" y1="0" x2="1" y2="0" gradientUnits="userSpaceOnUse" gradientTransform="matrix(1.43929e-11,1399.16,-1399.16,1.43929e-11,1175.4,303.069)"><stop offset="0" style="stop-color:rgb(136,189,230);stop-opacity:1"/><stop offset="1" style="stop-color:rgb(121,180,226);stop-opacity:1"/></linearGradient>
    </defs>
</svg>
