<?xml version="1.0" encoding="UTF-8" standalone="no"?>
<!DOCTYPE svg PUBLIC "-//W3C//DTD SVG 1.1//EN" "http://www.w3.org/Graphics/SVG/1.1/DTD/svg11.dtd">
<svg width="100%" height="100%" viewBox="0 0 49 33" version="1.1" xmlns="http://www.w3.org/2000/svg" xmlns:xlink="http://www.w3.org/1999/xlink" xml:space="preserve" xmlns:serif="http://www.serif.com/" style="fill-rule:evenodd;clip-rule:evenodd;stroke-linejoin:round;stroke-miterlimit:2;">
    <g transform="matrix(1,0,0,1,-284,-104)">
        <g id="Artboard3" transform="matrix(0.369122,0,0,0.339355,179.004,68.3802)">
            <rect x="284.448" y="104.963" width="132.656" height="94.536" style="fill:none;"/>
            <g transform="matrix(0.69243,0,0,0.753168,-790.936,-186.944)">
                <path d="M1621.67,458.926L1626.79,467.078L1590.38,482.735C1586.22,484.525 1581.82,480.75 1582.95,476.365L1593.81,434.442L1561,401.992C1557.7,398.73 1560.02,393.11 1564.66,393.121L1739.77,393.542L1621.67,458.926Z" style="fill:url(#_Linear1);"/>
            </g>
            <g transform="matrix(0.69243,0,0,0.753168,-790.936,-186.944)">
                <path d="M1593.81,434.442L1739.77,393.541L1626.78,467.077L1589.88,482.946C1585.92,484.649 1581.74,481.057 1582.82,476.883L1593.81,434.442Z" style="fill:url(#_Linear2);"/>
            </g>
            <g transform="matrix(0.69243,0,0,0.753168,-790.936,-186.944)">
                <path d="M1739.77,393.542L1666.37,502.84C1664.46,505.679 1660.38,505.927 1658.14,503.341L1626.79,467.078L1624.58,463.565C1623,461.045 1623.86,457.714 1626.46,456.273L1739.77,393.542Z" style="fill:url(#_Linear3);"/>
            </g>
        </g>
    </g>
    <defs>
        <linearGradient id="_Linear1" x1="0" y1="0" x2="1" y2="0" gradientUnits="userSpaceOnUse" gradientTransform="matrix(176.214,-185.5,185.5,176.214,1263.06,801.808)"><stop offset="0" style="stop-color:rgb(246,133,36);stop-opacity:1"/><stop offset="1" style="stop-color:rgb(252,180,47);stop-opacity:1"/></linearGradient>
        <linearGradient id="_Linear2" x1="0" y1="0" x2="1" y2="0" gradientUnits="userSpaceOnUse" gradientTransform="matrix(220.301,-110.248,110.248,220.301,1560.42,475.721)"><stop offset="0" style="stop-color:rgb(246,133,36);stop-opacity:1"/><stop offset="1" style="stop-color:rgb(252,180,47);stop-opacity:1"/></linearGradient>
        <linearGradient id="_Linear3" x1="0" y1="0" x2="1" y2="0" gradientUnits="userSpaceOnUse" gradientTransform="matrix(176.214,-185.5,185.5,176.214,1303.6,840.317)"><stop offset="0" style="stop-color:rgb(246,133,36);stop-opacity:1"/><stop offset="1" style="stop-color:rgb(252,180,47);stop-opacity:1"/></linearGradient>
    </defs>
</svg>
